<svg xmlns="http://www.w3.org/2000/svg" fill="none" viewBox="0 0 877 968">
    <g clip-path="url(#prefix__a)">
        <circle cx="391" cy="391" r="390.5" stroke="rgba(190,200,202,0.467)" transform="matrix(-1 0 0 1 416 -56)" />
        <circle cx="468" cy="468" r="467.5" stroke="rgba(246,134,22,0.427)" opacity=".3"
            transform="matrix(-1 0 0 1 493 -133)" />
        <circle cx="558" cy="558" r="557.5" stroke="rgba(96,255,255,0.436)" opacity=".1"
            transform="matrix(-1 0 0 1 583 -223)" />
        <g filter="url(#prefix__b)">
            <ellipse cx="583" cy="229.5" fill="rgba(8,199,228,0.105)" rx="583" ry="229.5"
                transform="matrix(-1 0 0 1 621 -9)" />
        </g>
        <g filter="url(#prefix__c)">
            <ellipse cx="262" cy="184.5" fill="#e14309" rx="262" ry="184.5" transform="matrix(-1 0 0 1 99 42)" />
        </g>
    </g>
    <defs>
        <filter id="prefix__b" width="1614" height="907" x="-769" y="-233" color-interpolation-filters="sRGB"
            filterUnits="userSpaceOnUse">
            <feFlood flood-opacity="0" result="BackgroundImageFix" />
            <feBlend in="SourceGraphic" in2="BackgroundImageFix" result="shape" />
            <feGaussianBlur result="effect1_foregroundBlur_3089_39042" stdDeviation="112" />
        </filter>
        <filter id="prefix__c" width="972" height="817" x="-649" y="-182" color-interpolation-filters="sRGB"
            filterUnits="userSpaceOnUse">
            <feFlood flood-opacity="0" result="BackgroundImageFix" />
            <feBlend in="SourceGraphic" in2="BackgroundImageFix" result="shape" />
            <feGaussianBlur result="effect1_foregroundBlur_3089_39042" stdDeviation="112" />
        </filter>
        <clipPath id="prefix__a">
            <path fill="#ff0000" d="M877 0H0v968h877z" />
        </clipPath>
    </defs>
</svg>
